<svg width="260" height="37" viewBox="0 0 260 37" fill="none" xmlns="http://www.w3.org/2000/svg">
<path d="M11.56 30.48C8.65333 30.48 6.2 29.8933 4.2 28.72C2.22667 27.52 0.826667 25.8533 1.49012e-08 23.72L5.76 21.64C6.13333 22.92 6.82667 23.8667 7.84 24.48C8.88 25.0933 10.1333 25.4 11.6 25.4C12.3733 25.4 13.12 25.32 13.84 25.16C14.56 24.9733 15.16 24.68 15.64 24.28C16.12 23.8533 16.36 23.2933 16.36 22.6C16.36 21.6667 15.9067 20.9467 15 20.44C14.0933 19.9067 12.92 19.5067 11.48 19.24L8.24 18.6C6.8 18.3067 5.45333 17.8667 4.2 17.28C2.97333 16.6667 1.98667 15.8667 1.24 14.88C0.493333 13.8667 0.12 12.6 0.12 11.08C0.12 9.64 0.453333 8.4 1.12 7.36C1.78667 6.32 2.66667 5.46667 3.76 4.8C4.88 4.13333 6.10667 3.64 7.44 3.32C8.77333 2.97333 10.1067 2.8 11.44 2.8C12.88 2.8 14.2667 3 15.6 3.4C16.96 3.8 18.1733 4.42667 19.24 5.28C20.3067 6.10667 21.12 7.21333 21.68 8.6L15.96 10.68C15.6133 9.77333 14.9867 9.08 14.08 8.6C13.2 8.12 12.1333 7.88 10.88 7.88C9.65333 7.88 8.62667 8.10667 7.8 8.56C7 8.98667 6.6 9.61333 6.6 10.44C6.6 11.1067 6.88 11.68 7.44 12.16C8 12.64 8.73333 12.9733 9.64 13.16L13.24 13.88C14.3333 14.0933 15.44 14.3733 16.56 14.72C17.68 15.04 18.7067 15.48 19.64 16.04C20.6 16.5733 21.3733 17.2933 21.96 18.2C22.5467 19.1067 22.84 20.2533 22.84 21.64C22.84 23.0533 22.5067 24.32 21.84 25.44C21.2 26.5333 20.3333 27.4533 19.24 28.2C18.1733 28.9467 16.9733 29.52 15.64 29.92C14.3067 30.2933 12.9467 30.48 11.56 30.48ZM117.966 30.48C115.06 30.48 112.606 29.8933 110.606 28.72C108.633 27.52 107.233 25.8533 106.406 23.72L112.166 21.64C112.54 22.92 113.233 23.8667 114.246 24.48C115.286 25.0933 116.54 25.4 118.006 25.4C118.78 25.4 119.526 25.32 120.246 25.16C120.966 24.9733 121.566 24.68 122.046 24.28C122.526 23.8533 122.766 23.2933 122.766 22.6C122.766 21.6667 122.313 20.9467 121.406 20.44C120.5 19.9067 119.326 19.5067 117.886 19.24L114.646 18.6C113.206 18.3067 111.86 17.8667 110.606 17.28C109.38 16.6667 108.393 15.8667 107.646 14.88C106.9 13.8667 106.526 12.6 106.526 11.08C106.526 9.64 106.86 8.4 107.526 7.36C108.193 6.32 109.073 5.46667 110.166 4.8C111.286 4.13333 112.513 3.64 113.846 3.32C115.18 2.97333 116.513 2.8 117.846 2.8C119.286 2.8 120.673 3 122.006 3.4C123.366 3.8 124.58 4.42667 125.646 5.28C126.713 6.10667 127.526 7.21333 128.086 8.6L122.366 10.68C122.02 9.77333 121.393 9.08 120.486 8.6C119.606 8.12 118.54 7.88 117.286 7.88C116.06 7.88 115.033 8.10667 114.206 8.56C113.406 8.98667 113.006 9.61333 113.006 10.44C113.006 11.1067 113.286 11.68 113.846 12.16C114.406 12.64 115.14 12.9733 116.046 13.16L119.646 13.88C120.74 14.0933 121.846 14.3733 122.966 14.72C124.086 15.04 125.113 15.48 126.046 16.04C127.006 16.5733 127.78 17.2933 128.366 18.2C128.953 19.1067 129.246 20.2533 129.246 21.64C129.246 23.0533 128.913 24.32 128.246 25.44C127.606 26.5333 126.74 27.4533 125.646 28.2C124.58 28.9467 123.38 29.52 122.046 29.92C120.713 30.2933 119.353 30.48 117.966 30.48Z" fill="#EAAA00"/>
<path d="M26.3656 36.44V32.04H27.5656C28.4723 32.04 29.1523 32 29.6056 31.92C30.059 31.84 30.4056 31.64 30.6456 31.32C30.9123 31.0267 31.1523 30.5467 31.3656 29.88L23.7656 10.16H30.2856L34.1656 22.56L37.9656 10.16H44.4856L36.8856 30C36.2456 31.68 35.5923 32.9867 34.9256 33.92C34.2856 34.8533 33.459 35.5067 32.4456 35.88C31.4323 36.2533 30.059 36.44 28.3256 36.44H26.3656ZM46.4688 30V10.16H51.7888L52.5488 12.8C53.0021 12.0533 53.7488 11.3333 54.7888 10.64C55.8554 9.94666 57.1488 9.6 58.6688 9.6C61.2288 9.6 62.9754 10.32 63.9088 11.76C64.8688 13.1733 65.3488 15.2267 65.3488 17.92V30H59.2688V19.44C59.2688 18.5067 59.2154 17.6533 59.1088 16.88C59.0021 16.1067 58.7354 15.4933 58.3088 15.04C57.9088 14.56 57.2154 14.32 56.2287 14.32C54.9488 14.32 54.0154 14.7867 53.4288 15.72C52.8421 16.6267 52.5488 17.9867 52.5488 19.8V30H46.4688ZM77.7194 30C76.0927 30 74.7994 29.8667 73.8394 29.6C72.8794 29.3067 72.186 28.76 71.7594 27.96C71.3594 27.1333 71.1594 25.9467 71.1594 24.4V14.8H67.8794V10.16H71.1594V5.2H77.2394V10.16H81.5594V14.8H77.2394V22.8C77.2394 23.7333 77.4127 24.3467 77.7594 24.64C78.1327 24.9067 78.8127 25.04 79.7994 25.04H81.5594V30H77.7194ZM84.5156 30V3.28H90.5956V12.8C91.049 12.0533 91.7956 11.3333 92.8356 10.64C93.9023 9.94666 95.1956 9.6 96.7156 9.6C99.2756 9.6 101.022 10.32 101.956 11.76C102.916 13.1733 103.396 15.2267 103.396 17.92V30H97.3156V19.44C97.3156 18.5067 97.2623 17.6533 97.1556 16.88C97.049 16.1067 96.7823 15.4933 96.3556 15.04C95.9556 14.56 95.2623 14.32 94.2756 14.32C92.9956 14.32 92.0623 14.7867 91.4756 15.72C90.889 16.6267 90.5956 17.9867 90.5956 19.8V30H84.5156ZM141.292 30.48C139.105 30.48 137.252 30.04 135.732 29.16C134.239 28.28 133.092 27.0533 132.292 25.48C131.519 23.88 131.132 22.04 131.132 19.96C131.132 17.88 131.559 16.0667 132.412 14.52C133.265 12.9467 134.452 11.7333 135.972 10.88C137.519 10.0267 139.292 9.6 141.292 9.6C142.439 9.6 143.572 9.76 144.692 10.08C145.839 10.4 146.892 10.9467 147.852 11.72C148.839 12.4667 149.639 13.4933 150.252 14.8L145.172 16.64C144.852 15.7867 144.372 15.1867 143.732 14.84C143.119 14.4933 142.425 14.32 141.652 14.32C140.932 14.32 140.239 14.5067 139.572 14.88C138.905 15.2267 138.359 15.8133 137.932 16.64C137.532 17.4667 137.332 18.5867 137.332 20C137.332 21.44 137.545 22.5867 137.972 23.44C138.399 24.2667 138.932 24.8667 139.572 25.24C140.239 25.5867 140.932 25.76 141.652 25.76C142.505 25.76 143.225 25.6 143.812 25.28C144.399 24.9333 144.865 24.4667 145.212 23.88L150.172 25.68C149.505 26.88 148.679 27.84 147.692 28.56C146.705 29.2533 145.652 29.7467 144.532 30.04C143.439 30.3333 142.359 30.48 141.292 30.48ZM158.753 30.48C157.5 30.48 156.353 30.24 155.313 29.76C154.273 29.28 153.446 28.6133 152.833 27.76C152.22 26.88 151.913 25.84 151.913 24.64C151.913 23.0133 152.473 21.72 153.593 20.76C154.74 19.8 156.3 19.08 158.273 18.6C160.246 18.12 162.513 17.7867 165.073 17.6C165.073 16.1867 164.846 15.1867 164.393 14.6C163.94 14.0133 163.06 13.72 161.753 13.72C160.926 13.72 160.193 13.92 159.553 14.32C158.94 14.6933 158.526 15.28 158.313 16.08L153.193 14.24C153.86 12.9067 154.966 11.8 156.513 10.92C158.086 10.04 160.006 9.6 162.273 9.6C165.1 9.6 167.273 10.2267 168.793 11.48C170.313 12.7333 171.073 14.8667 171.073 17.88V22.24C171.073 23.0933 171.1 24.0133 171.153 25C171.206 25.9867 171.286 26.92 171.393 27.8C171.5 28.68 171.62 29.4133 171.753 30H166.113L165.393 27.6C164.646 28.64 163.7 29.3867 162.553 29.84C161.433 30.2667 160.166 30.48 158.753 30.48ZM160.993 26.32C162.193 26.32 163.193 26 163.993 25.36C164.793 24.72 165.193 23.4933 165.193 21.68V21.2C163.086 21.3867 161.393 21.68 160.113 22.08C158.833 22.4533 158.193 23.16 158.193 24.2C158.193 24.84 158.46 25.36 158.993 25.76C159.526 26.1333 160.193 26.32 160.993 26.32ZM176.543 30V14.8H173.263V10.16H176.543V6.92C176.543 5.34667 176.809 4.12 177.343 3.24C177.876 2.36 178.703 1.74667 179.823 1.4C180.943 1.05333 182.396 0.879998 184.183 0.879998H186.943V5.68H185.263C184.196 5.68 183.489 5.78667 183.143 6C182.796 6.21333 182.623 6.70667 182.623 7.48V10.16H186.943V14.8H182.623V30H176.543ZM191.23 30V14.8H187.95V10.16H191.23V6.92C191.23 5.34667 191.497 4.12 192.03 3.24C192.563 2.36 193.39 1.74667 194.51 1.4C195.63 1.05333 197.083 0.879998 198.87 0.879998H201.63V5.68H199.95C198.883 5.68 198.177 5.78667 197.83 6C197.483 6.21333 197.31 6.70667 197.31 7.48V10.16H201.63V14.8H197.31V30H191.23ZM213.058 30.48C211.218 30.48 209.498 30.1067 207.898 29.36C206.298 28.6133 205.005 27.4667 204.018 25.92C203.031 24.3467 202.538 22.3733 202.538 20C202.538 17.6 203.031 15.64 204.018 14.12C205.005 12.5733 206.298 11.44 207.898 10.72C209.498 9.97333 211.218 9.6 213.058 9.6C214.871 9.6 216.578 9.97333 218.178 10.72C219.778 11.44 221.071 12.5733 222.058 14.12C223.045 15.64 223.538 17.6 223.538 20C223.538 22.3733 223.045 24.3467 222.058 25.92C221.071 27.4667 219.778 28.6133 218.178 29.36C216.578 30.1067 214.871 30.48 213.058 30.48ZM213.058 25.76C214.285 25.76 215.298 25.32 216.098 24.44C216.925 23.56 217.338 22.08 217.338 20C217.338 17.8933 216.911 16.4267 216.058 15.6C215.231 14.7467 214.231 14.32 213.058 14.32C211.858 14.32 210.831 14.7467 209.978 15.6C209.151 16.4267 208.738 17.8933 208.738 20C208.738 22.08 209.151 23.56 209.978 24.44C210.805 25.32 211.831 25.76 213.058 25.76ZM233.068 30C231.441 30 230.148 29.8667 229.188 29.6C228.228 29.3067 227.534 28.76 227.108 27.96C226.708 27.1333 226.508 25.9467 226.508 24.4V3.28H232.588V22.8C232.588 23.7333 232.774 24.3467 233.148 24.64C233.521 24.9067 234.214 25.04 235.228 25.04H236.948V30H233.068ZM246.806 30.48C245.099 30.48 243.579 30.0533 242.246 29.2C240.939 28.3467 239.913 27.1333 239.166 25.56C238.419 23.96 238.046 22.08 238.046 19.92C238.046 17.76 238.419 15.92 239.166 14.4C239.913 12.8533 240.939 11.6667 242.246 10.84C243.579 10.0133 245.099 9.6 246.806 9.6C247.899 9.6 249.019 9.88 250.166 10.44C251.313 10.9733 252.206 11.7867 252.846 12.88V3.28H258.926V22.24C258.926 23.2267 258.966 24.4 259.046 25.76C259.153 27.12 259.339 28.5333 259.606 30H253.806L253.006 27.32C252.179 28.4667 251.206 29.28 250.086 29.76C248.993 30.24 247.899 30.48 246.806 30.48ZM248.766 25.76C249.939 25.76 250.953 25.32 251.806 24.44C252.686 23.56 253.126 22.0933 253.126 20.04C253.126 18.0133 252.686 16.56 251.806 15.68C250.953 14.7733 249.939 14.32 248.766 14.32C247.566 14.32 246.526 14.8 245.646 15.76C244.793 16.72 244.366 18.1067 244.366 19.92C244.366 21.76 244.793 23.2 245.646 24.24C246.526 25.2533 247.566 25.76 248.766 25.76Z" fill="#003057"/>
</svg>
